<?xml version="1.0" encoding="UTF-8" standalone="no"?>
<!DOCTYPE svg PUBLIC "-//W3C//DTD SVG 1.1//EN" "http://www.w3.org/Graphics/SVG/1.1/DTD/svg11.dtd">
<svg width="100%" height="100%" viewBox="0 0 43 35" version="1.1" xmlns="http://www.w3.org/2000/svg" xmlns:xlink="http://www.w3.org/1999/xlink" xml:space="preserve" xmlns:serif="http://www.serif.com/" style="fill-rule:evenodd;clip-rule:evenodd;stroke-linejoin:round;stroke-miterlimit:1.41421;">
    <g id="Artboard1" transform="matrix(1,0,0,1,-0.145049,0.25134)">
        <rect x="0.145" y="-0.251" width="42.623" height="34.014" style="fill:none;"/>
        <g transform="matrix(0.0774269,0,0,0.0774269,1.623,-3.21237)">
            <path d="M500,384C506.6,384 512,389.4 512,396L512,436C512,442.6 506.6,448 500,448L12,448C5.4,448 0,442.6 0,436L0,76C0,69.4 5.4,64 12,64L52,64C58.6,64 64,69.4 64,76L64,384L500,384ZM372.7,159.5L288,216L202.7,102.3C197.6,95.5 187.2,96 182.8,103.3L96,248L96,352L480,352L390.1,164.2C386.9,157.7 378.7,155.5 372.7,159.5Z" style="fill:white;fill-rule:nonzero;stroke:white;stroke-width:12.92px;"/>
        </g>
    </g>
</svg>
