<?xml version="1.0" encoding="UTF-8" standalone="no"?>
<!DOCTYPE svg PUBLIC "-//W3C//DTD SVG 1.1//EN" "http://www.w3.org/Graphics/SVG/1.1/DTD/svg11.dtd">
<svg width="100%" height="100%" viewBox="0 0 43 35" version="1.1" xmlns="http://www.w3.org/2000/svg" xmlns:xlink="http://www.w3.org/1999/xlink" xml:space="preserve" xmlns:serif="http://www.serif.com/" style="fill-rule:evenodd;clip-rule:evenodd;stroke-linejoin:round;stroke-miterlimit:1.41421;">
    <g id="Artboard1" transform="matrix(1,0,0,1,-0.145049,0.25134)">
        <rect x="0.145" y="-0.251" width="42.623" height="34.014" style="fill:none;"/>
        <g transform="matrix(0.0758295,0,0,0.0756811,1.92189,-2.35981)">
            <path d="M128,116L128,76C128,67.163 135.163,60 144,60L496,60C504.837,60 512,67.163 512,76L512,116C512,124.837 504.837,132 496,132L144,132C135.163,132 128,124.837 128,116ZM144,292L496,292C504.837,292 512,284.837 512,276L512,236C512,227.163 504.837,220 496,220L144,220C135.163,220 128,227.163 128,236L128,276C128,284.837 135.163,292 144,292ZM144,452L496,452C504.837,452 512,444.837 512,436L512,396C512,387.163 504.837,380 496,380L144,380C135.163,380 128,387.163 128,396L128,436C128,444.837 135.163,452 144,452ZM16,144L80,144C88.837,144 96,136.837 96,128L96,64C96,55.163 88.837,48 80,48L16,48C7.163,48 0,55.163 0,64L0,128C0,136.837 7.163,144 16,144ZM16,304L80,304C88.837,304 96,296.837 96,288L96,224C96,215.163 88.837,208 80,208L16,208C7.163,208 0,215.163 0,224L0,288C0,296.837 7.163,304 16,304ZM16,464L80,464C88.837,464 96,456.837 96,448L96,384C96,375.163 88.837,368 80,368L16,368C7.163,368 0,375.163 0,384L0,448C0,456.837 7.163,464 16,464Z" style="fill:white;fill-rule:nonzero;"/>
        </g>
    </g>
</svg>
