<?xml version="1.0" encoding="UTF-8" standalone="no"?>
<!DOCTYPE svg PUBLIC "-//W3C//DTD SVG 1.1//EN" "http://www.w3.org/Graphics/SVG/1.1/DTD/svg11.dtd">
<svg width="100%" height="100%" viewBox="0 0 43 35" version="1.1" xmlns="http://www.w3.org/2000/svg" xmlns:xlink="http://www.w3.org/1999/xlink" xml:space="preserve" xmlns:serif="http://www.serif.com/" style="fill-rule:evenodd;clip-rule:evenodd;stroke-linejoin:round;stroke-miterlimit:1.41421;">
    <g transform="matrix(0.0574564,0,0,0.0574564,2.97104,2.46768)">
        <g id="Artboard1">
            <path d="M640,264L640,248C640,239.16 632.84,232 624,232L344,232L344,192L416,192C433.67,192 448,177.67 448,160L448,32C448,14.33 433.67,0 416,0L224,0C206.33,0 192,14.33 192,32L192,160C192,177.67 206.33,192 224,192L296,192L296,232L16,232C7.16,232 0,239.16 0,248L0,264C0,272.84 7.16,280 16,280L120,280L120,320L64,320C46.33,320 32,334.33 32,352L32,480C32,497.67 46.33,512 64,512L224,512C241.67,512 256,497.67 256,480L256,352C256,334.33 241.67,320 224,320L168,320L168,280L472,280L472,320L416,320C398.33,320 384,334.33 384,352L384,480C384,497.67 398.33,512 416,512L576,512C593.67,512 608,497.67 608,480L608,352C608,334.33 593.67,320 576,320L520,320L520,280L624,280C632.84,280 640,272.84 640,264ZM256,128L256,64L384,64L384,128L256,128ZM192,448L96,448L96,384L192,384L192,448ZM544,448L448,448L448,384L544,384L544,448Z" style="fill:white;fill-rule:nonzero;stroke:white;stroke-width:17.4px;"/>
        </g>
    </g>
</svg>
